<?xml version="1.0" encoding="utf-8"?>
<!-- Generator: Adobe Illustrator 22.0.1, SVG Export Plug-In . SVG Version: 6.00 Build 0)  -->
<svg version="1.1" id="Layer_1" xmlns="http://www.w3.org/2000/svg" xmlns:xlink="http://www.w3.org/1999/xlink" x="0px" y="0px"
	 viewBox="0 0 1000 384" style="enable-background:new 0 0 1000 384;" xml:space="preserve">
<style type="text/css">
	.st0{opacity:0.33;fill:url(#SVGID_1_);}
	.st1{fill:#FFFFFF;}
</style>
<g>
	<g>
		<path d="M287.4,192c0,8.6-3.5,16.5-9.2,22.2c-5.7,5.7-13.5,9.2-22.2,9.2h-71.9l-4,14.2c-1.5,5.4-9.1,5.5-10.8,0.2L158.1,202
			c-0.9-2.8-5-2.7-5.7,0.2l-16.9,68.2c-1.4,5.6-9.4,5.7-10.9,0.1l-18.4-68.3c-0.7-2.5-4.3-2.4-4.8,0.2l-5.6,27.8
			c-0.4,1.8-2.8,1.9-3.4,0.2l-8.2-25.1c-4.3-8-17.4-9.7-27.6-11.4c-2.1-0.3-2.2-3.4-0.1-3.8c9.3-1.9,16.5-4.5,21.1-6.5
			c3.7-1.7,6.6-4.8,7.9-8.6l6.9-21.2c0.6-1.7,3-1.6,3.4,0.2l5.6,27.8c0.5,2.6,4.1,2.7,4.8,0.2l18.4-68.3c1.5-5.6,9.5-5.5,10.9,0.1
			l16.9,68.2c0.7,2.9,4.8,3,5.7,0.2l11.3-35.7c1.7-5.3,9.3-5.2,10.8,0.2l4,14.2H256C273.3,160.7,287.4,174.7,287.4,192z"/>
		<linearGradient id="SVGID_1_" gradientUnits="userSpaceOnUse" x1="263.319" y1="190.486" x2="193.6546" y2="192.8277">
			<stop  offset="0" style="stop-color:#070707"/>
			<stop  offset="1" style="stop-color:#3DDEED;stop-opacity:0"/>
		</linearGradient>
		<rect x="180.5" y="169.5" class="st0" width="75.6" height="45"/>
		<circle class="st1" cx="256.1" cy="192" r="22.5"/>
	</g>
	<g>
		<g>
			<path d="M349.3,227.5c-5.1,0-10.2-0.9-15.1-2.6c-4.9-1.8-9.4-4.5-13.5-8.1l8.7-10.5c3.1,2.5,6.2,4.5,9.5,6
				c3.2,1.5,6.8,2.2,10.6,2.2c3.1,0,5.5-0.6,7.2-1.7c1.7-1.1,2.5-2.7,2.5-4.7v-0.2c0-1-0.2-1.8-0.5-2.5c-0.4-0.7-1-1.4-2-2.1
				c-1-0.6-2.4-1.3-4.1-1.9c-1.8-0.6-4.1-1.3-6.9-2c-3.4-0.8-6.5-1.8-9.3-2.8c-2.8-1-5.1-2.3-7-3.8c-1.9-1.5-3.4-3.4-4.5-5.6
				c-1.1-2.2-1.6-5-1.6-8.4v-0.2c0-3.1,0.6-5.8,1.7-8.3c1.1-2.5,2.8-4.6,4.8-6.4c2.1-1.8,4.5-3.2,7.4-4.1c2.9-1,6-1.4,9.5-1.4
				c4.9,0,9.5,0.7,13.6,2.2s7.9,3.6,11.4,6.3l-7.7,11.1c-3-2-6-3.7-8.8-4.9c-2.9-1.2-5.8-1.8-8.6-1.8s-5,0.6-6.5,1.7
				c-1.4,1.1-2.2,2.5-2.2,4.2v0.2c0,1.1,0.2,2,0.6,2.8c0.4,0.8,1.2,1.5,2.3,2.2c1.1,0.6,2.6,1.2,4.5,1.8c1.9,0.6,4.3,1.2,7.2,2
				c3.4,0.9,6.4,1.9,9.1,3c2.7,1.1,4.9,2.5,6.7,4c1.8,1.6,3.2,3.4,4.1,5.5c0.9,2.1,1.4,4.6,1.4,7.6v0.2c0,3.3-0.6,6.3-1.8,8.9
				c-1.2,2.6-2.9,4.8-5.1,6.5c-2.2,1.8-4.7,3.1-7.7,4C356.2,227,352.9,227.5,349.3,227.5z"/>
			<path d="M410.5,227.7c-4,0-7.7-0.7-11.1-2.1c-3.4-1.4-6.3-3.3-8.8-5.7c-2.5-2.4-4.4-5.2-5.8-8.5c-1.4-3.2-2.1-6.7-2.1-10.4v-0.2
				c0-3.7,0.7-7.2,2.1-10.4c1.4-3.2,3.4-6.1,5.9-8.5c2.5-2.4,5.4-4.4,8.8-5.8c3.4-1.4,7.1-2.1,11.1-2.1c4,0,7.7,0.7,11.1,2.1
				c3.4,1.4,6.3,3.3,8.8,5.7c2.5,2.4,4.4,5.2,5.8,8.5c1.4,3.2,2.1,6.7,2.1,10.4v0.2c0,3.7-0.7,7.2-2.1,10.4
				c-1.4,3.2-3.4,6.1-5.9,8.5c-2.5,2.4-5.4,4.4-8.8,5.8C418.2,226.9,414.5,227.7,410.5,227.7z M410.7,215.1c2.1,0,4-0.4,5.6-1.1
				c1.6-0.7,3-1.7,4.2-3c1.2-1.3,2-2.8,2.6-4.5c0.6-1.7,0.9-3.5,0.9-5.4v-0.2c0-1.9-0.3-3.7-1-5.4c-0.6-1.7-1.6-3.2-2.8-4.5
				c-1.2-1.3-2.7-2.4-4.3-3.1c-1.7-0.8-3.5-1.2-5.5-1.2c-2.1,0-4,0.4-5.6,1.1c-1.6,0.7-3,1.7-4.2,3c-1.2,1.3-2,2.8-2.6,4.5
				c-0.6,1.7-0.9,3.5-0.9,5.4v0.2c0,1.9,0.3,3.7,1,5.4c0.6,1.7,1.6,3.2,2.8,4.5c1.2,1.3,2.6,2.4,4.3,3.1
				C406.8,214.7,408.6,215.1,410.7,215.1z"/>
			<path d="M466.1,227.5c-5.6,0-9.9-1.7-12.9-5.1c-3-3.4-4.6-8.1-4.6-14V175h14.6v28.7c0,3.5,0.8,6.1,2.3,7.8
				c1.5,1.8,3.7,2.6,6.5,2.6c2.8,0,5-0.9,6.7-2.6c1.6-1.8,2.5-4.4,2.5-7.8V175h14.6v51.5h-14.6v-7.4c-0.8,1.1-1.7,2.1-2.7,3.1
				c-1,1-2.1,1.9-3.3,2.7c-1.2,0.8-2.6,1.4-4,1.8C469.6,227.2,468,227.5,466.1,227.5z"/>
			<path d="M508.9,175h14.6v7.4c0.8-1.1,1.7-2.1,2.7-3.1c1-1,2.1-1.9,3.3-2.7c1.2-0.8,2.6-1.4,4-1.8c1.5-0.5,3.1-0.7,5-0.7
				c5.6,0,9.9,1.7,12.9,5.1c3,3.4,4.6,8.1,4.6,14v33.3h-14.6v-28.7c0-3.5-0.8-6.1-2.3-7.8c-1.5-1.8-3.7-2.6-6.5-2.6
				c-2.8,0-5,0.9-6.7,2.6c-1.6,1.8-2.5,4.4-2.5,7.8v28.7h-14.6V175z"/>
			<path d="M589.9,227.5c-3,0-5.9-0.6-8.7-1.7c-2.8-1.2-5.3-2.9-7.5-5.1c-2.2-2.3-3.9-5.1-5.2-8.4c-1.3-3.3-2-7.1-2-11.4v-0.2
				c0-4.3,0.7-8.1,2-11.4c1.3-3.3,3-6.1,5.2-8.4c2.1-2.3,4.6-4,7.4-5.1c2.8-1.2,5.8-1.7,8.8-1.7c3.9,0,7.1,0.8,9.7,2.3
				c2.5,1.5,4.7,3.3,6.4,5.4v-25.4h14.6v70.2h-14.6v-7.4c-1.8,2.4-4,4.4-6.5,6C596.9,226.7,593.7,227.5,589.9,227.5z M593.6,215.1
				c1.7,0,3.3-0.3,4.9-1c1.5-0.7,2.8-1.6,3.9-2.9c1.1-1.2,2-2.8,2.7-4.5c0.7-1.8,1-3.7,1-5.8v-0.2c0-2.1-0.3-4.1-1-5.8
				c-0.7-1.8-1.6-3.3-2.7-4.5c-1.1-1.3-2.4-2.2-3.9-2.9c-1.5-0.7-3.1-1-4.9-1c-1.7,0-3.3,0.3-4.9,1c-1.5,0.7-2.8,1.6-4,2.9
				c-1.2,1.2-2.1,2.7-2.7,4.5c-0.7,1.7-1,3.7-1,5.9v0.2c0,2.1,0.3,4.1,1,5.8c0.7,1.8,1.6,3.3,2.7,4.5c1.2,1.3,2.5,2.2,4,2.9
				C590.3,214.7,591.9,215.1,593.6,215.1z"/>
			<path d="M659.2,227.5c-5.1,0-10.2-0.9-15.1-2.6c-4.9-1.8-9.4-4.5-13.5-8.1l8.7-10.5c3.1,2.5,6.2,4.5,9.5,6
				c3.2,1.5,6.8,2.2,10.6,2.2c3.1,0,5.5-0.6,7.2-1.7c1.7-1.1,2.5-2.7,2.5-4.7v-0.2c0-1-0.2-1.8-0.5-2.5c-0.4-0.7-1-1.4-2-2.1
				c-1-0.6-2.4-1.3-4.1-1.9c-1.8-0.6-4.1-1.3-6.9-2c-3.4-0.8-6.5-1.8-9.3-2.8c-2.8-1-5.1-2.3-7-3.8c-1.9-1.5-3.4-3.4-4.5-5.6
				c-1.1-2.2-1.6-5-1.6-8.4v-0.2c0-3.1,0.6-5.8,1.7-8.3c1.1-2.5,2.8-4.6,4.8-6.4c2.1-1.8,4.5-3.2,7.4-4.1c2.9-1,6-1.4,9.5-1.4
				c4.9,0,9.5,0.7,13.6,2.2s7.9,3.6,11.4,6.3L674,178c-3-2-6-3.7-8.8-4.9c-2.9-1.2-5.8-1.8-8.6-1.8c-2.9,0-5,0.6-6.5,1.7
				c-1.4,1.1-2.2,2.5-2.2,4.2v0.2c0,1.1,0.2,2,0.6,2.8c0.4,0.8,1.2,1.5,2.3,2.2c1.1,0.6,2.6,1.2,4.5,1.8c1.9,0.6,4.3,1.2,7.2,2
				c3.4,0.9,6.4,1.9,9.1,3c2.7,1.1,4.9,2.5,6.7,4c1.8,1.6,3.2,3.4,4.1,5.5c0.9,2.1,1.4,4.6,1.4,7.6v0.2c0,3.3-0.6,6.3-1.8,8.9
				c-1.2,2.6-2.9,4.8-5.1,6.5c-2.2,1.8-4.7,3.1-7.7,4S662.8,227.5,659.2,227.5z"/>
			<path d="M687.1,175h14.8l8.3,31.2l9.7-31.4h12.6l9.8,31.5l8.5-31.3h14.5l-16,51.9H736l-9.9-31.6L716,226.9h-13.1L687.1,175z"/>
			<path d="M774.3,156.3h15.4v13h-15.4V156.3z M774.7,175h14.6v51.5h-14.6V175z"/>
			<path d="M820.4,227.4c-2.2,0-4.3-0.2-6.1-0.7c-1.8-0.5-3.4-1.3-4.7-2.5c-1.3-1.2-2.3-2.8-3.1-4.8s-1.1-4.4-1.1-7.4v-24.4h-6.2
				V175h6.2v-13.2h14.6V175h12.1v12.5h-12.1v22.1c0,3.3,1.6,5,4.7,5c2.6,0,5-0.6,7.2-1.9v11.7c-1.5,0.9-3.2,1.6-5.1,2.2
				C825,227.1,822.9,227.4,820.4,227.4z"/>
			<path d="M867.3,227.7c-3.8,0-7.4-0.7-10.7-2.1c-3.3-1.4-6.1-3.3-8.5-5.7c-2.4-2.4-4.2-5.2-5.6-8.5c-1.3-3.2-2-6.7-2-10.3v-0.2
				c0-3.7,0.7-7.1,2-10.4c1.3-3.3,3.2-6.1,5.6-8.6c2.4-2.4,5.2-4.4,8.5-5.8c3.3-1.4,6.9-2.1,10.9-2.1c4.9,0,8.9,0.8,12.1,2.3
				c3.2,1.5,6,3.7,8.5,6.3l-8.9,9.6c-1.7-1.7-3.4-3.1-5.1-4.1c-1.8-1-4-1.5-6.6-1.5c-1.9,0-3.5,0.4-5,1.1c-1.5,0.7-2.8,1.7-3.9,3
				c-1.1,1.3-2,2.8-2.6,4.5c-0.6,1.7-0.9,3.5-0.9,5.4v0.2c0,2,0.3,3.8,0.9,5.6c0.6,1.7,1.5,3.2,2.6,4.5c1.2,1.3,2.5,2.3,4.1,3
				c1.6,0.7,3.4,1.1,5.4,1.1c2.4,0,4.6-0.5,6.4-1.5c1.8-1,3.6-2.3,5.4-4l8.6,8.6c-2.5,2.8-5.4,5-8.6,6.8
				C876.5,226.8,872.4,227.7,867.3,227.7z"/>
			<path d="M897.8,156.3h14.6v26c0.8-1.1,1.7-2.1,2.7-3.1c1-1,2.1-1.9,3.3-2.7c1.2-0.8,2.6-1.4,4-1.8c1.5-0.5,3.1-0.7,5-0.7
				c5.6,0,9.9,1.7,12.9,5.1c3,3.4,4.6,8.1,4.6,14v33.3h-14.6v-28.7c0-3.5-0.8-6.1-2.3-7.8c-1.5-1.8-3.7-2.6-6.5-2.6
				c-2.8,0-5,0.9-6.7,2.6c-1.6,1.8-2.5,4.4-2.5,7.8v28.7h-14.6V156.3z"/>
		</g>
	</g>
</g>
</svg>
