<?xml version="1.0" encoding="utf-8"?>
<!-- SoundSwitch icon (text removed) -->
<svg xmlns="http://www.w3.org/2000/svg" xmlns:xlink="http://www.w3.org/1999/xlink"
     viewBox="40 88 260 200" role="img" aria-label="SoundSwitch">
  <defs>
    <linearGradient id="ssIconGradient" gradientUnits="userSpaceOnUse" x1="263.319" y1="190.486" x2="193.6546" y2="192.8277">
      <stop offset="0" stop-color="#070707"/>
      <stop offset="1" stop-color="#3DDEED" stop-opacity="0"/>
    </linearGradient>
  </defs>
  <g>
    <path fill="#0D47A1" d="M287.4,192c0,8.6-3.5,16.5-9.2,22.2c-5.7,5.7-13.5,9.2-22.2,9.2h-71.9l-4,14.2c-1.5,5.4-9.1,5.5-10.8,0.2
      L158.1,202c-0.9-2.8-5-2.7-5.7,0.2l-16.9,68.2c-1.4,5.6-9.4,5.7-10.9,0.1l-18.4-68.3c-0.7-2.5-4.3-2.4-4.8,0.2l-5.6,27.8
      c-0.4,1.8-2.8,1.9-3.4,0.2l-8.2-25.1c-4.3-8-17.4-9.7-27.6-11.4c-2.1-0.3-2.2-3.4-0.1-3.8c9.3-1.9,16.5-4.5,21.1-6.5
      c3.7-1.7,6.6-4.8,7.9-8.6l6.9-21.2c0.6-1.7,3-1.6,3.4,0.2l5.6,27.8c0.5,2.6,4.1,2.7,4.8,0.2l18.4-68.3c1.5-5.6,9.5-5.5,10.9,0.1
      l16.9,68.2c0.7,2.9,4.8,3,5.7,0.2l11.3-35.7c1.7-5.3,9.3-5.2,10.8,0.2l4,14.2H256C273.3,160.7,287.4,174.7,287.4,192z"/>
    <rect x="180.5" y="169.5" width="75.6" height="45" fill="url(#ssIconGradient)" opacity="0.33"/>
    <circle cx="256.1" cy="192" r="22.5" fill="#E5E3DC"/>
  </g>
</svg>
